<?xml version="1.0" encoding="UTF-8" standalone="no"?>
<!-- Created with Inkscape (http://www.inkscape.org/) -->

<svg
   width="67.904366mm"
   height="47.406494mm"
   viewBox="0 0 67.904366 47.406494"
   version="1.1"
   id="svg5"
   inkscape:version="1.2.2 (732a01da63, 2022-12-09)"
   sodipodi:docname="Muscade logo.svg"
   xml:space="preserve"
   xmlns:inkscape="http://www.inkscape.org/namespaces/inkscape"
   xmlns:sodipodi="http://sodipodi.sourceforge.net/DTD/sodipodi-0.dtd"
   xmlns:xlink="http://www.w3.org/1999/xlink"
   xmlns="http://www.w3.org/2000/svg"
   xmlns:svg="http://www.w3.org/2000/svg"><sodipodi:namedview
     id="namedview7"
     pagecolor="#ffffff"
     bordercolor="#000000"
     borderopacity="0.25"
     inkscape:showpageshadow="2"
     inkscape:pageopacity="0.0"
     inkscape:pagecheckerboard="0"
     inkscape:deskcolor="#d1d1d1"
     inkscape:document-units="mm"
     showgrid="false"
     inkscape:zoom="1.5798599"
     inkscape:cx="88.615454"
     inkscape:cy="438.01353"
     inkscape:window-width="2400"
     inkscape:window-height="1271"
     inkscape:window-x="1991"
     inkscape:window-y="-9"
     inkscape:window-maximized="1"
     inkscape:current-layer="layer1" /><defs
     id="defs2"><linearGradient
       inkscape:collect="always"
       id="linearGradient1632"><stop
         style="stop-color:#ffccaa;stop-opacity:1;"
         offset="0"
         id="stop1628" /><stop
         style="stop-color:#ffccaa;stop-opacity:0;"
         offset="1"
         id="stop1630" /></linearGradient><linearGradient
       inkscape:collect="always"
       xlink:href="#linearGradient1632"
       id="linearGradient47861"
       gradientUnits="userSpaceOnUse"
       x1="100.81854"
       y1="119.74295"
       x2="86.750839"
       y2="103.16315"
       gradientTransform="translate(-55.040542,166.28958)" /></defs><g
     inkscape:label="Layer 1"
     inkscape:groupmode="layer"
     id="layer1"
     transform="translate(-7.9159805,-245.42532)"><g
       id="g47880"
       inkscape:export-filename="muscadelogo1.png"
       inkscape:export-xdpi="112.21664"
       inkscape:export-ydpi="112.21664"><path
         style="fill:#fda97a;fill-opacity:1;stroke-width:0.264583"
         id="path1155-5"
         d="m 25.641512,249.49363 c -1.07564,0.45083 -2.23747,0.64946 -3.323135,1.06786 -6.193336,2.57942 -11.50419,6.70939 -12.696679,13.61133 -0.68581,3.96936 0.481704,8.43527 2.426358,11.66708 2.481281,4.12362 6.112261,7.5825 9.718842,10.15022 6.347075,4.51883 13.430221,7.32779 21.382133,6.77184 4.327617,-0.30256 7.642647,-1.98132 10.474547,-4.56425 1.34624,-1.22788 2.21639,-2.95305 2.86303,-4.65654 1.57506,-4.14928 1.30448,-8.4152 0.46725,-12.676 -0.89451,-4.55228 -2.6371,-8.95105 -5.16123,-12.84789 -1.19879,-1.85071 -2.75539,-3.44336 -4.13308,-5.16504 -1.49575,-1.28976 -2.853686,-2.75921 -4.487242,-3.86927 -2.712437,-1.8432 -8.979125,-3.54339 -12.362902,-3.55737 -5.337979,-0.0221 -9.900814,1.23867 -15.001853,1.71207 -1.295599,0.12024 -1.488612,0.61171 -7.803926,0.20389 -0.314388,0.27101 0.2868,0.95544 0.701567,0.9713 12.801614,0.48952 24.912183,-5.05662 33.818522,0.61934 7.800474,5.33569 12.340464,13.18284 13.986624,21.78171 0.75736,4.13056 0.85287,8.44295 -0.69326,12.43294 -0.64621,1.66764 -1.54944,3.29979 -2.80411,4.5743 -3.04762,3.09581 -6.02084,4.23304 -10.154156,4.69748 -7.742044,0.86993 -14.73489,-1.85197 -20.854802,-6.40873 -3.771826,-2.80842 -6.859105,-6.14725 -9.007996,-9.94978 -1.229412,-2.17548 -2.227628,-5.32209 -2.430735,-7.85631 -0.09358,-1.16755 -0.0959,-2.36565 0.150899,-3.51065 0.829702,-3.8494 1.412546,-5.14019 4.056025,-7.54722 3.208375,-2.9214 7.973624,-5.59989 12.194218,-6.32912 0.561387,-0.56211 -0.763522,-1.88531 -1.324909,-1.3232 z"
         sodipodi:nodetypes="scsssssssscssscsccsssssssscss" /><g
         id="g47872"><path
           style="fill:url(#linearGradient47861);fill-opacity:1;stroke-width:0.158528"
           d="m 37.925788,291.36479 c -10.137235,-1.08581 -21.361354,-9.77765 -24.352045,-18.85796 -1.445497,-4.3888 -1.21421,-8.19358 0.721189,-11.86387 1.520105,-2.88273 4.07808,-5.26395 7.326024,-6.81979 1.652019,-0.79136 3.352989,-1.38025 5.112376,-1.76994 0.666341,-0.14759 1.273546,-0.32644 1.349344,-0.39742 0.232375,-0.21764 -0.04157,-0.93278 -0.465567,-1.21538 -0.380385,-0.25353 -0.45451,-0.24841 -1.418734,0.0978 -0.55956,0.20095 -1.046942,0.33528 -1.083073,0.29853 -0.03613,-0.0368 0.201702,-0.6393 0.528522,-1.33898 1.042789,-2.23253 1.362241,-3.25893 1.131351,-3.63501 -0.198949,-0.32405 -0.186364,-0.32556 1.842959,-0.22108 3.996115,0.20573 7.586416,1.11585 11.153284,2.82731 2.092754,1.00415 3.324067,1.85256 5.49366,3.7853 2.85835,2.54629 5.37547,5.76146 7.17279,9.16193 2.57556,4.87284 4.09295,11.84945 3.58183,16.46828 -0.34362,3.10523 -1.0088,4.97088 -2.66631,7.4784 -1.66562,2.51978 -4.72925,4.6598 -7.80437,5.45154 -2.228406,0.57373 -5.320478,0.79694 -7.62323,0.5503 z"
           id="path1232-2" /><text
           xml:space="preserve"
           style="font-style:normal;font-variant:normal;font-weight:normal;font-stretch:normal;font-size:16.9333px;font-family:'AR DECODE';-inkscape-font-specification:'AR DECODE';fill:#894325;fill-opacity:1;stroke-width:0.264583"
           x="18.47995"
           y="267.77802"
           id="text3893-2"><tspan
             sodipodi:role="line"
             id="tspan3891-3"
             style="font-style:normal;font-variant:normal;font-weight:normal;font-stretch:normal;font-family:'AR DECODE';-inkscape-font-specification:'AR DECODE';fill:#894325;fill-opacity:1;stroke-width:0.264583"
             x="18.47995"
             y="267.77802">Muscade<tspan
   style="font-style:normal;font-variant:normal;font-weight:normal;font-stretch:normal;font-size:6.35px;font-family:Consolas;-inkscape-font-specification:Consolas;fill:#2b1100"
   id="tspan43493-8">.jl</tspan></tspan></text></g></g></g></svg>
